<svg xmlns="http://www.w3.org/2000/svg" viewBox="0 0 99.39 37.14"><defs><style>.cls-1{fill:#302927;}.cls-2{fill:#f08300;}.cls-3{fill:#fabe00;}.cls-4{fill:#e9490a;}.cls-5{fill:#b7be02;}</style></defs><g id="Layer_2" data-name="Layer 2"><g id="Layer_1-2" data-name="Layer 1"><g id="Layer_2-2" data-name="Layer 2"><g id="Layer_1-2-2" data-name="Layer 1-2"><path class="cls-1" d="M6.88,13.76a6.88,6.88,0,1,1,6.88-6.88A6.88,6.88,0,0,1,6.88,13.76Zm0-10.22A3.36,3.36,0,0,0,3.65,6.83a3.38,3.38,0,0,0,3.28,3.28,3.38,3.38,0,0,0,3.28-3.28A3.36,3.36,0,0,0,6.93,3.54Z"></path><path class="cls-1" d="M6.85,28.7V16.6H20V28.7Zm3.62-3.63h5.94V20.22H10.47Z"></path><path class="cls-1" d="M35.84,37.13V25H49V37.13Zm3.62-3.62H45.4V28.66H39.46Z"></path><rect class="cls-1" x="64.55" y="0.4" width="3.59" height="13.11"></rect><polygon class="cls-1" points="56.1 13.52 56.1 3.99 49.04 3.99 49.04 0.4 59.69 0.4 59.69 4.13 59.69 4.32 59.69 13.52 56.1 13.52"></polygon><path class="cls-1" d="M55,28.7V16.6H68.14V28.7Zm3.62-3.63h5.93V20.22h-6Z"></path><rect class="cls-2" x="28.52" y="0.44" width="16.37" height="3.59"></rect><rect class="cls-3" x="6.85" y="33.55" width="24.24" height="3.59"></rect><rect class="cls-4" x="54.96" y="33.55" width="22.72" height="3.59"></rect><rect class="cls-5" x="74.07" y="0.44" width="21.22" height="3.59"></rect><polygon class="cls-1" points="45.43 22 45.43 17.23 43.33 17.23 43.33 22 39.74 22 39.74 8.88 43.33 8.88 43.33 13.64 45.43 13.64 45.43 8.88 49.02 8.88 49.02 22 45.43 22"></polygon><polygon class="cls-1" points="33.9 22 31.11 16.34 31.06 16.26 30.89 16.26 28.06 22 24.03 22 30.98 7.5 37.93 22 33.9 22"></polygon><polygon class="cls-1" points="91.98 21.97 91.98 8.86 99.39 8.86 99.39 12.45 95.57 12.45 95.57 21.97 91.98 21.97"></polygon><path class="cls-1" d="M83.52,22H74.07V8.85h3.59v3.31h6V8.85h3.59V22Zm-5.86-3.58h6V15.51h-6Z"></path><path class="cls-1" d="M82.43,37.13V25H86v2.56h6V25h3.58V37.13ZM86,33.54h6v-2.9H86Z"></path><polygon class="cls-1" points="16.33 13.56 16.33 0.44 23.73 0.44 23.73 4.03 19.91 4.03 19.91 6.2 23.73 6.2 23.73 9.78 19.91 9.78 19.91 13.56 16.33 13.56"></polygon></g></g></g></g></svg>